<?xml version="1.0" encoding="utf-8"?>
<!-- Generator: Adobe Illustrator 22.0.1, SVG Export Plug-In . SVG Version: 6.00 Build 0)  -->
<svg version="1.1" id="Layer_1" xmlns="http://www.w3.org/2000/svg" xmlns:xlink="http://www.w3.org/1999/xlink" x="0px" y="0px"
	 viewBox="0 0 279 31" style="enable-background:new 0 0 279 31;" xml:space="preserve">
<style type="text/css">
	.st0{fill:#CB2026;}
</style>
<path id="Shape" class="st0" d="M118.8,15.3c0,2.4,0.9,4.7,2.6,6.4s4,2.6,6.4,2.6c5,0,9-4,9-9c0.1-2.4-0.8-4.8-2.5-6.5
	s-4.1-2.7-6.5-2.6C122.8,6.3,118.8,10.3,118.8,15.3z M122.2,15.3c0-3.2,2.3-6.2,5.7-6.2s5.7,2.5,5.7,6.2c0.1,1.6-0.5,3.1-1.6,4.3
	s-2.6,1.8-4.1,1.8C124.5,21.5,122.2,18.9,122.2,15.3z"/>
<path id="Shape_1_" class="st0" d="M99.1,15.3c-0.1,2.4,0.8,4.8,2.5,6.5c1.7,1.7,4.1,2.6,6.5,2.5c2.7,0.1,5.3-1.2,6.9-3.4l0.1-0.1
	l-2.5-2.1l-0.1,0.2c-0.9,1.7-2.6,2.7-4.5,2.6c-3.4,0-5.7-2.7-5.7-6.2c-0.1-1.6,0.5-3.1,1.5-4.3c1.1-1.2,2.6-1.9,4.2-1.9
	c1.8,0,3.5,1,4.5,2.5l0.1,0.1l2.5-2L115,9.6c-1.7-2.1-4.3-3.3-7-3.3c-2.4,0-4.7,0.9-6.3,2.6S99.1,12.9,99.1,15.3z"/>
<polygon id="Shape_2_" class="st0" points="225.9,16.7 225.9,23.9 229.1,23.9 229.1,16.7 235.4,6.7 231.9,6.7 227.5,13.6 223.3,6.7 
	219.6,6.7 "/>
<path id="Shape_3_" class="st0" d="M167.4,6.7v17.2h3.3v-6.4c0.2,0,0.5,0.1,0.8,0.1c4.2,0,7.1-1.8,7.1-5.4c0-3.4-2.5-5.5-7.2-5.5
	H167.4z M170.7,9.3h0.8c2.7,0,3.8,1,3.8,2.8s-1.2,2.8-3.8,2.8c-0.3,0-0.5,0-0.8-0.1V9.3z"/>
<polygon id="Shape_4_" class="st0" points="145.6,14.6 151,24.4 156.3,14.6 158.4,23.9 161.8,23.9 157.3,6.4 151.1,18 144.7,6.4 
	140.4,24 143.6,24 "/>
<polygon id="Shape_5_" class="st0" points="57.3,16.9 45.9,6.4 45.9,24 49,24 49,13.8 60.5,24.4 60.5,6.7 57.3,6.7 "/>
<polygon id="Shape_6_" class="st0" points="35.1,6.7 35.1,23.9 38.4,23.9 38.4,6.7 "/>
<path id="Shape_7_" class="st0" d="M30.9,23.9L22.5,6.3l-8.4,17.6h3.3l1.7-3.7h6.6l1.6,3.7H30.9z M20.3,17.5l2.2-5l2,5H20.3z"/>
<path id="Shape_8_" class="st0" d="M8.3,14.8c1.4-0.6,2.3-2.1,2.3-3.6c0-3-2.4-4.5-6.5-4.5H0v17.2h4.9c4.4,0,6.8-1.8,6.8-5
	C11.6,16.9,10.2,15.2,8.3,14.8z M4.7,16.6c2.3,0,3.6,0.6,3.6,2.4c0,1.6-1.2,2.3-3.6,2.3H3.3v-4.7H4.7z M3.3,14V9.3h0.6
	c2.4,0,3.6,0.6,3.6,2.4S6.3,14,4,14H3.3z"/>
<path id="Shape_9_" class="st0" d="M85.1,24h3.8c0,0-2.9-3.3-3.4-3.9c0.4-0.5,2.9-4.3,2.9-4.3h-3.1l-1.5,2.3L81.1,15
	c2.3-1.2,3.7-2.9,3.7-4.7c0-2.4-2.1-4-4.8-4c-3,0-5,1.8-5,4.2c0.1,1.6,0.8,3,1.9,4.1c-1.8,1-3.4,2.5-3.4,5c0,2.7,2.2,4.8,5.4,4.8
	c1.8,0,3.6-0.7,4.8-2.1L85.1,24z M78,10.6c0-0.5,0.2-1.1,0.6-1.4c0.4-0.4,0.9-0.6,1.4-0.6c0.5,0,1,0.1,1.4,0.5
	c0.4,0.3,0.6,0.8,0.5,1.3c0,1.2-1.2,2.1-2.4,2.7C78.7,12.5,78.1,11.6,78,10.6z M81.9,20.4c-0.6,0.8-1.6,1.3-2.7,1.3
	c-0.7,0.1-1.3-0.2-1.8-0.6c-0.5-0.5-0.8-1.1-0.8-1.8c0.1-1.2,0.8-2.2,1.8-2.8h0.1L81.9,20.4z"/>
<polygon id="Shape_10_" class="st0" points="212.5,16.9 201.1,6.4 201.1,23.9 204.3,23.9 204.3,13.8 215.7,24.4 215.7,6.7 
	212.5,6.7 "/>
<path id="Shape_11_" class="st0" d="M196.9,23.9l-8.4-17.6l-8.4,17.6h3.3l1.7-3.7h6.6l1.6,3.7H196.9z M186.3,17.5l2.2-5l2,5H186.3z"
	/>
<path id="Shape_12_" class="st0" d="M269.1,16.1l-2.8-12.4l-7.7,10L269.1,16.1z M279,15.3c0,8.4-6.9,15.3-15.3,15.3
	c-8.4,0-15.3-6.9-15.3-15.3S255.3,0,263.7,0c0.8,0,1.6,0.1,2.4,0.2l-1.3,1.7h-1.1c-3.4,0-6.6,1.3-9.1,3.6c-2.4,2.4-3.8,5.6-3.8,9
	c0,7.1,5.8,12.9,12.9,12.9c7.1,0,12.9-5.8,12.9-12.9c0-5.2-3.3-9.9-8.2-11.7l-0.5-2.1C274.5,2.5,279,8.5,279,15.3z"/>
</svg>
